<svg xmlns="http://www.w3.org/2000/svg" fill="#680CE9" viewBox="0 0 445.32 445.5"><defs/><path d="M376.65 220.73v-.1-1.79c0-1.24-.07-2.52-.14-3.9 0-.31 0-.63-.05-.94A154 154 0 00224.94 68.77h-4.25a154 154 0 00-152 150.32v.06a.28.28 0 010 .09V226.35a154 154 0 00151.74 150.38h4.25A154 154 0 00376.42 231.4a6.09 6.09 0 000-.74c.08-1.31.15-2.62.19-3.94v-1.96-2c0-.67.05-1.35.04-2.03zm-14.21-5.85v.69c.07 1.28.12 2.44.13 3.55a.49.49 0 000 .12v7.03A111.92 111.92 0 01352.34 270v.06c-.43.92-.87 1.84-1.33 2.75l-.13.27c-.43.85-.87 1.7-1.31 2.53l-.18.33c-.44.82-.9 1.65-1.37 2.47l-.15.25c-.49.85-1 1.7-1.5 2.53l-.06.11a112.53 112.53 0 01-30.74 32.7 112.13 112.13 0 01-91.14 17.63h-.13a111.43 111.43 0 01-15.8-5.07l-.73-.31c-1.35-.56-2.69-1.14-4-1.76l-1.21-.56c-1.14-.55-2.27-1.11-3.4-1.69l-1.4-.74q-1.47-.8-2.91-1.62l-1.69-1c-.64-.38-1.28-.77-1.91-1.17-.86-.53-1.7-1.08-2.54-1.64-.61-.4-1.2-.81-1.8-1.22L185 313.5l-.75-.54a97.93 97.93 0 0035.86 7.76h5a125.1 125.1 0 0070.34-23.16l.51-.37a125.91 125.91 0 0052.64-102.44c0-1.47 0-2.94-.08-4.4 0-.38 0-.76-.05-1.14 0-1.26-.12-2.51-.21-3.76 0-.22 0-.45-.05-.67-.11-1.44-.25-2.88-.41-4.32 0-.34-.09-.69-.13-1-.14-1.18-.3-2.35-.47-3.52l-.15-1c-.22-1.42-.46-2.83-.74-4.24-.05-.26-.1-.53-.16-.79-.23-1.18-.49-2.36-.76-3.53-.08-.36-.16-.72-.25-1.08-.33-1.4-.68-2.79-1.06-4.18a2.58 2.58 0 01-.08-.26c-.36-1.3-.75-2.6-1.16-3.89-.11-.35-.22-.71-.34-1.07-.4-1.23-.81-2.45-1.24-3.66-.06-.15-.11-.3-.16-.45-.49-1.35-1-2.69-1.54-4l-.41-1c-.45-1.1-.92-2.19-1.41-3.28-.12-.27-.23-.54-.35-.8s-.13-.29-.19-.43a139.17 139.17 0 0125.24 72.6zm-223.78 7.87v-2.19a83.92 83.92 0 0181.78-81.78h4.37c1.23 0 2.45.1 3.67.18l.88.06c1.1.09 2.2.2 3.29.33l1.36.18 1.89.28c1.23.2 2.47.42 3.69.67l.32.07A84 84 0 01303 198.19l.06.2c.73 2.41 1.34 4.85 1.85 7.32.08.36.15.72.22 1.08.15.8.3 1.61.43 2.42s.25 1.62.36 2.43c.09.63.15 1.26.22 1.89s.11 1 .16 1.56.11 1.29.16 1.94c.08 1.16.14 2.32.17 3.49v4.37a83.91 83.91 0 01-81.78 81.78h-4.37a83.92 83.92 0 01-81.78-81.78q-.04-1.04-.04-2.14zm82.24-140h3.58a112.46 112.46 0 0178.3 33.78c.17.17.34.33.5.5l.74.78a111.32 111.32 0 019.81 11.88l.11.15a112.15 112.15 0 0117.59 91.26.19.19 0 000 .07c-.36 1.47-.75 2.93-1.16 4.38-.06.2-.11.41-.17.61-.41 1.39-.84 2.77-1.3 4.14l-.27.79c-.46 1.34-.94 2.68-1.45 4-.1.26-.2.51-.31.77q-.78 2-1.65 4l-.26.56c-.59 1.33-1.21 2.65-1.85 4l-.11.23c-.66 1.32-1.35 2.64-2.07 3.93-.11.21-.22.42-.34.63-.69 1.24-1.4 2.46-2.14 3.68l-.45.74q-1.11 1.78-2.28 3.54l-.47.69q-1.14 1.67-2.34 3.3a97.9 97.9 0 007.74-35.81v-2.55-2.51-1.48c0-.43 0-.84-.06-1.26 0-1-.09-1.93-.15-2.89 0-.59-.08-1.18-.13-1.77-.08-1-.15-1.94-.25-2.91-.06-.57-.13-1.15-.19-1.72-.12-1-.23-2-.37-2.93-.07-.55-.16-1.11-.25-1.66-.15-1-.3-2-.47-3-.09-.54-.2-1.07-.3-1.6-.19-1-.38-2-.59-3l-.36-1.56c-.23-1-.45-2-.7-2.95-.13-.52-.28-1-.42-1.54-.26-1-.52-2-.8-2.93l-.48-1.55c-.3-1-.59-1.91-.91-2.85-.18-.54-.37-1.08-.56-1.61-.32-.92-.64-1.83-1-2.74-.22-.58-.45-1.15-.68-1.72-.34-.86-.67-1.72-1-2.56-.27-.64-.55-1.26-.83-1.89s-.68-1.56-1-2.34-.67-1.4-1-2.1-.66-1.38-1-2.06-.84-1.6-1.27-2.4c-.31-.56-.6-1.13-.91-1.69-.51-.93-1.05-1.84-1.59-2.75-.25-.43-.49-.86-.75-1.28-.66-1.09-1.34-2.15-2-3.22-.16-.25-.31-.5-.47-.74-.87-1.32-1.76-2.61-2.67-3.9a125.84 125.84 0 00-72.81-49.39l-.27-.07h-.08c-1.12-.27-2.24-.53-3.38-.77h-.12l-.56-.11c-.93-.2-1.86-.38-2.8-.56h-.23l-.9-.16-2.38-.39h-.31l-1.37-.24c-.67-.1-1.33-.2-2-.28h-.38l-1.5-.17-1.67-.18h-.42l-1.78-.15-1.36-.1h-.45l-2.05-.11-1.08-.05h-.45l-2.33-.06h-2.12a125.47 125.47 0 00-52.38 11.35 139.18 139.18 0 0178.59-25.49zM82.71 225.91v-.53-.63-2-2.1V219.8a1.09 1.09 0 000-.18 111.44 111.44 0 016.74-35.37c.64-1.74 1.32-3.46 2-5.1a1.8 1.8 0 00.08-.21 111 111 0 016.28-12.47c.5-.89 1.08-1.85 1.7-2.85s1.4-2.2 2.13-3.28c.6-.9 1.21-1.78 1.8-2.61 2-2.84 4.19-5.57 6.38-8.12.62-.7 1.24-1.41 1.88-2.1l.14-.16c.22-.25.44-.49.67-.73.06-.07.13-.13.18-.2.37-.4.74-.79 1.12-1.18l.14-.14c.31-.34.62-.66 1-1l.18-.18c.32-.33.64-.66 1-1a2.76 2.76 0 00.3-.29c.13-.14.26-.27.42-.42l1.15-1.11.35-.34a112.7 112.7 0 0111.4-9.28 111.14 111.14 0 0164.9-20.73h1.63c.78 0 1.55 0 2.33.06h1.12l2 .11 1.44.1 1.71.14 1.78.18c.46 0 .92.09 1.37.15.72.08 1.43.18 2.15.28l1 .14c.85.12 1.69.26 2.53.41l.63.1c1 .18 2 .37 3 .57h.2c1.07.22 2.12.46 3.17.71l.31.09c1.51.36 3 .76 4.5 1.18l.56.16c1.41.41 2.81.86 4.2 1.32l.74.25c1.36.47 2.71 1 4.06 1.48l.31.12.4.16c1.36.53 2.71 1.09 4 1.68l.5.23c1.35.6 2.69 1.23 4 1.88l.21.11q2 1 4 2.09l.58.32c1.26.7 2.5 1.43 3.73 2.18l.21.12.47.29c1.21.75 2.41 1.53 3.6 2.32l.56.39h.05c1.11.75 2.2 1.53 3.28 2.33a98 98 0 00-35.83-7.75h-5A125 125 0 00149.77 148l-.19.13a125.91 125.91 0 00-52.92 102.62c0 1.47 0 2.94.09 4.4v1.14c.06 1.26.13 2.51.22 3.76v.67c.11 1.44.26 2.88.42 4.32l.12 1c.14 1.18.3 2.36.48 3.53.05.32.09.64.14 1 .22 1.42.47 2.84.74 4.25 0 .26.11.52.16.78.23 1.19.49 2.37.76 3.55.08.35.16.71.25 1.06.33 1.4.68 2.8 1.07 4.19 0 .08 0 .16.07.24.36 1.31.75 2.61 1.16 3.9.11.36.22.72.34 1.07.4 1.23.81 2.46 1.25 3.67l.15.45c.49 1.34 1 2.68 1.54 4l.41 1q.67 1.65 1.41 3.27c.12.28.23.55.36.82l.18.41a139.09 139.09 0 01-25.27-77.32zm141.88 136.83h-3.7a112.47 112.47 0 01-89.32-46.82l-.06-.09-.12-.17a112 112 0 01-17.59-91.27v-.09c.35-1.46.74-2.9 1.15-4.34l.18-.64q.6-2.07 1.29-4.11l.27-.81c.46-1.34.94-2.67 1.45-4 .1-.27.21-.53.31-.79.53-1.34 1.07-2.66 1.65-4 .08-.19.17-.38.26-.57.59-1.32 1.2-2.63 1.84-3.93l.12-.25c.66-1.32 1.35-2.63 2.06-3.93.12-.21.23-.42.34-.63.69-1.24 1.41-2.46 2.15-3.68l.44-.72c.74-1.2 1.51-2.39 2.3-3.57l.44-.64c.77-1.13 1.56-2.25 2.37-3.35a98 98 0 00-7.75 35.81v5.06a125.51 125.51 0 007.63 40.85c.68 1.85 1.41 3.69 2.15 5.47l.09.21c.2.49.42 1 .66 1.53v.13c.61 1.41 1.28 2.86 2 4.42v.07l.16.31a123.72 123.72 0 0010.38 17.42 126.08 126.08 0 0073 49.5h.08a126.53 126.53 0 0081.84-7.75 139.24 139.24 0 01-78.07 25.37z"/></svg>