<svg xmlns="http://www.w3.org/2000/svg" fill="#680CE9" viewBox="0 0 446.94 445.91"><defs/><path d="M374.72 193.83a153.84 153.84 0 00-50.28-87.13c-.11-.1-.22-.2-.34-.29a153 153 0 00-50.22-29 154.77 154.77 0 00-100.59 0l-.23.07a153.31 153.31 0 00-50.33 29.1h-.06A154.21 154.21 0 0072.21 252v.06a152.48 152.48 0 0017.84 47.88 154.12 154.12 0 0032.43 39.3l.13.12A153.31 153.31 0 00173 368.49a154.68 154.68 0 00100.82 0l.33-.12a153.25 153.25 0 0050.1-29 154.55 154.55 0 0032.55-39.4 152.42 152.42 0 0017.81-47.72c0-.08 0-.16.05-.23a155.69 155.69 0 000-58.16zm-20.87 1.29l-34.14 19.71-41.16-23.77v-39.41l37.25 21.51.19.12c.21.13.43.25.65.36l30.2 17.44zm-219.67-28.38v-42.87l34.13 19.71v47.52l-34.13 19.71v-42.89a5.07 5.07 0 000-.55q.03-.31 0-.63zM275 300.14l-37.53-21.66 37.58-21.7.19-.11.32-.23.33-.23c.19-.15.36-.31.53-.47l.13-.12c.19-.2.37-.41.54-.62a7 7 0 00.51-7.77 7.31 7.31 0 00-.43-.65.64.64 0 00-.1-.13c-.14-.18-.29-.35-.44-.51l-.17-.18c-.15-.14-.3-.28-.46-.41l-.22-.18a5.91 5.91 0 00-.52-.35l-.21-.14-44.62-25.76v-39.47L267.67 201l.19.12c.21.13.43.25.65.36l10.66 6.16 33.51 19.35v95l-37.59-21.7zm-48-182.3l37.57-21.7V183l-32.79-18.93-4.78-2.79-.12-.06a7 7 0 00-10.42 6.1v51.56l-34.12 19.7v-42.94-.49a5 5 0 000-.55v-51L226.7 118zM93.1 250.7l37.58-21.7h.08l30-17.31 7.58-4.38v44.29a6.93 6.93 0 005 5.84 5.77 5.77 0 00.9.19h.08a6.65 6.65 0 00.89.06h.09l.71-.05h.21l.6-.12c.1 0 .2 0 .3-.06a5.34 5.34 0 00.52-.18l.34-.11.49-.25a3 3 0 00.31-.15L223.47 231l34.13 19.7-37.22 21.49-.66.36-.2.13-44.17 25.51-20.64-11.92-23.78-13.72-.25-.16zm127.35 77l-.14.06a7.61 7.61 0 00-.83.5l-15.71 9.07-21.46 12.38v-39.4L203.59 298l19.88-11.48 34.13 19.7-13.31 7.68zm94.65-210.6a140.41 140.41 0 0129.62 35.81A138.85 138.85 0 01357 180.78l-33.79-19.51-.15-.08-3-1.74-41.5-24V94.2A139 139 0 01315 117zM177.44 90.7l.23-.08a141.07 141.07 0 0176.05-4.39l-33.23 19.19-.22.11a6.15 6.15 0 00-.75.44l-44.17 25.51-35.74-20.64a138.89 138.89 0 0137.83-20.14zM86 196.45a139.83 139.83 0 0134.2-68v90.45l-35.75 20.63A141 141 0 0186 196.45zm45.7 132.24a140.36 140.36 0 01-29.52-35.77A138.93 138.93 0 0189.89 265l33.31 19.22.35.23c.19.12.39.22.59.32l44.17 25.5v41.4a139.5 139.5 0 01-36.39-22.8zm138.71 26.2a7.08 7.08 0 00-2.27.8 141 141 0 01-75 4l33.68-19.45.18-.1 44.63-25.77L307.41 335a138.53 138.53 0 01-37 19.89zm90.66-106a7.88 7.88 0 00-.17.87 138.35 138.35 0 01-16.14 43.14 140.23 140.23 0 01-18.08 24.63V279v-.6V227l15.83-9.14 20-11.53a141.79 141.79 0 01-1.42 42.62z"/></svg>